# xmcd
#
# Track frame offsets: 
#        150
#        16107
#        32645
#        43532
#        56441
#        68373
#        83683
#        97333
#        116892
#        132308
#        145911
#        160305
#        176906
#        191335
#        208560
#        223704
#        239783
#        253095
#        264560
#        280351
#        296035
#        309842
#        324820
#
# Disc length: 4523 seconds
#
# Revision: 0
# Processed by: cddbd v1.5.2PL0 Copyright (c) Steve Scherf et al.
# Submitted via: ExactAudioCopy v1.1
#
DISCID=5611a917
DTITLE=Various Artist - MNM Party 2015 Volume 2 - CD 1 - Newest Dance Hits
DYEAR=2015
DGENRE=Dance
TTITLE0=The Weeknd - Can't Feel My Face
TTITLE1=Regi and Lester Williams Feat. Patti Russo - When It Comes To Lo
TTITLE1=ve
TTITLE2=Lil Kleine and Ronnie Flex - Drank and drugs
TTITLE3=Dimitri Vegas and Like Mike Feat. Ne - Yo - Higher Place
TTITLE4=Lost Frequencies Feat. Janieck Devy - Reality
TTITLE5=Lea Rue - I Can't Say No! (Broiler Remix)
TTITLE6=Axwell Λ Ingrosso - Sun Is Shining
TTITLE7=The Chemical Brothers - Go
TTITLE8=Jason Derulo - Want To Want Me
TTITLE9=David Zowie - House Every Weekend
TTITLE10=Armin Van Buuren Feat. Mr. Probz - Another You
TTITLE11=Safi and Spreej Met Domè - Schijn
TTITLE12=Ian Thomas Feat. Flo Rida and LiLana - Till The Morning
TTITLE13=Avicii - Waiting For Love
TTITLE14=Alvar and Millas Feat. Daimy Lotus - Fast Lane
TTITLE15=Madcon Feat. Ray Dalton - Don't Worry
TTITLE16=2 Fabiola Feat. Loredana - Doctor Disco
TTITLE17=Gregory Porter - Liquid Spirit (Claptone Remix)
TTITLE18=Kygo Feat. Parson James - Stole The Show
TTITLE19=Robin Schulz Feat. Ilsey - Headlights
TTITLE20=Felix Jaehn Feat. Jasmine Thompson - Ain't Nobody (Loves Me B
TTITLE20=etter)
TTITLE21=Kate Ryan - Runaway (Smalltown Boy)
TTITLE22=Eva Simons Feat. Konshens - Policeman
EXTD=
EXTT0=
EXTT1=
EXTT2=
EXTT3=
EXTT4=
EXTT5=
EXTT6=
EXTT7=
EXTT8=
EXTT9=
EXTT10=
EXTT11=
EXTT12=
EXTT13=
EXTT14=
EXTT15=
EXTT16=
EXTT17=
EXTT18=
EXTT19=
EXTT20=
EXTT21=
EXTT22=
PLAYORDER=
